<svg height="395pt" viewBox="0 -34 395.94667 395" width="395pt" xmlns="http://www.w3.org/2000/svg"><path d="m202.152344.472656c-51.074219 0-102.878906 23.175782-142.144532 63.585938-38.136718 39.246094-60.007812 89.277344-60.007812 137.257812 0 46.261719 21.132812 80.175782 62.808594 100.792969 33.570312 16.605469 79.945312 24.679687 141.757812 24.679687 54.597656 0 95.832032-6.652343 126.050782-20.347656 43.347656-19.644531 65.328124-55.015625 65.328124-105.125 0-94.804687-82.878906-200.84375-193.792968-200.84375zm121.535156 294.089844c-28.304688 12.484375-67.28125 18.570312-119.121094 18.570312-58.875 0-102.855468-7.425781-134.417968-22.660156-11.765626-14.398437-18.242188-33.222656-18.242188-53.207031 0-42.003906 28.292969-76.175781 63.066406-76.175781 23.914063 0 45.472656 16.089844 56.28125 41.992187.148438.355469.335938.675781.535156.992188l-7.257812 8.265625c-4.332031 4.945312-5.339844 11.746094-2.625 17.734375 2.546875 5.605469 7.765625 9.226562 13.828125 9.664062l6.898437 2.289063c6.867188 2.277344 13.980469 3.421875 21.101563 3.421875 6 0 12.003906-.8125 17.878906-2.433594l11.800781-3.265625c6.140626-.367188 11.445313-4.003906 14.019532-9.675781 2.714844-5.988281 1.707031-12.785157-2.625-17.738281l-10.710938-12.203126c.128906-.222656.277344-.433593.382813-.671874 10.480469-23.667969 29.96875-38.371094 50.859375-38.371094 32.367187 0 58.703125 34.171875 58.703125 76.175781-.003907 21.933594-7.414063 42.71875-20.355469 57.296875zm-89.148438-73.222656c1.066407 1.21875.75 2.460937.460938 3.09375-.285156.632812-1.011719 1.691406-2.625 1.691406-.613281 0-1.226562.085938-1.820312.246094l-12.578126 3.480468c-10.226562 2.835938-20.972656 2.5625-31.042968-.785156l-7.8125-2.59375c-.691406-.230468-1.417969-.347656-2.152344-.347656-1.613281 0-2.339844-1.058594-2.628906-1.691406-.285156-.632813-.605469-1.878906.460937-3.09375l14.828125-16.894532c3.800782-4.328124 9.28125-6.8125 15.046875-6.8125 5.757813 0 11.238281 2.484376 15.039063 6.8125v.003907zm114.675782 57.945312c5.503906-12.820312 8.480468-27.222656 8.480468-42.019531 0-49.53125-32.460937-89.828125-72.355468-89.828125-25.144532 0-48.371094 16.203125-61.480469 42.5625-5.582031-3.875-12.261719-6.019531-19.1875-6.019531-8.574219 0-16.773437 3.273437-22.976563 9.066406-13.59375-28.265625-38.75-45.609375-66.722656-45.609375-42.304687 0-76.71875 40.296875-76.71875 89.828125 0 13.101563 2.425782 25.804687 7.027344 37.421875-21.234375-17.894531-31.628906-42.109375-31.628906-73.371094 0-86.5625 82.339844-187.191406 188.5-187.191406 103.101562 0 180.140625 98.828125 180.140625 187.191406 0 34.1875-10.867188 59.921875-33.078125 77.96875zm0 0"/><path d="m294.519531 193.636719c-7.855469-4.855469-18.15625-2.421875-23.007812 5.429687-4.851563 7.855469-2.421875 18.15625 5.433593 23.007813 7.851563 4.855469 18.152344 2.421875 23.003907-5.433594 4.855469-7.851563 2.421875-18.152344-5.429688-23.003906zm0 0"/><path d="m135.292969 207.882812c0 9.230469-7.484375 16.714844-16.714844 16.714844s-16.714844-7.484375-16.714844-16.714844c0-9.234374 7.484375-16.714843 16.714844-16.714843s16.714844 7.480469 16.714844 16.714843zm0 0"/></svg>